<svg width="80" height="80" viewBox="0 0 80 80" fill="none" xmlns="http://www.w3.org/2000/svg">
<rect x="0.5" y="0.5" width="79" height="79" rx="39.5" stroke="#333333"/>
<path d="M28.4997 27.1664C28.4997 26.8903 28.7235 26.6665 28.9996 26.6665L51.9993 26.6658C52.7355 26.6658 53.3324 27.263 53.3327 27.9992L53.3327 50.9995C53.3326 51.2754 53.1086 51.4992 52.8327 51.4994C52.5568 51.4993 52.3329 51.2755 52.3328 50.9995L52.3314 28.321C52.307 28.3794 52.2719 28.4343 52.2244 28.4819L28.0377 52.6685C27.8425 52.8638 27.5259 52.8638 27.3306 52.6685C27.1357 52.4732 27.1355 52.1566 27.3306 51.9614L51.5173 27.7748C51.5655 27.7265 51.6215 27.6907 51.6809 27.6663L28.9996 27.6663C28.7235 27.6663 28.4997 27.4425 28.4997 27.1664ZM52.087 27.6802C52.1362 27.7039 52.1835 27.7339 52.2244 27.7748C52.2638 27.8142 52.2934 27.86 52.3169 27.9073C52.2848 27.7964 52.1985 27.7107 52.087 27.6802Z" fill="#111111"/>
</svg>
