<svg width="44" height="44" viewBox="0 0 44 44" fill="none" xmlns="http://www.w3.org/2000/svg">
<path d="M10.5004 9.16689C10.5004 8.89074 10.7242 8.66694 11.0004 8.66694L34 8.66625C34.7362 8.66626 35.3331 9.26352 35.3334 9.99967L35.3334 33C35.3333 33.2759 35.1093 33.4997 34.8335 33.4999C34.5575 33.4997 34.3336 33.2759 34.3335 33L34.3321 10.3215C34.3077 10.3799 34.2726 10.4348 34.2251 10.4824L10.0385 34.669C9.84319 34.8643 9.52661 34.8643 9.33135 34.669C9.13642 34.4737 9.1362 34.157 9.33135 33.9619L33.518 9.77525C33.5662 9.72702 33.6223 9.69124 33.6816 9.66683L11.0004 9.66683C10.7242 9.66683 10.5005 9.443 10.5004 9.16689ZM34.0877 9.68064C34.137 9.70436 34.1842 9.73444 34.2251 9.77525C34.2645 9.81468 34.2941 9.8605 34.3176 9.90783C34.2855 9.79693 34.1992 9.71121 34.0877 9.68064Z" fill="#111111"/>
</svg>
