<svg width="80" height="80" viewBox="0 0 80 80" fill="none" xmlns="http://www.w3.org/2000/svg">
<rect x="0.5" y="0.5" width="79" height="79" rx="39.5" stroke="#333333"/>
<path d="M28.5004 27.1664C28.5004 26.8903 28.7242 26.6665 29.0004 26.6665L52 26.6658C52.7362 26.6658 53.3331 27.263 53.3334 27.9992V50.9995C53.3333 51.2754 53.1093 51.4992 52.8335 51.4994C52.5575 51.4993 52.3336 51.2755 52.3335 50.9995L52.3321 28.321C52.3077 28.3794 52.2726 28.4343 52.2251 28.4819L28.0385 52.6685C27.8432 52.8638 27.5266 52.8638 27.3314 52.6685C27.1364 52.4732 27.1362 52.1566 27.3314 51.9614L51.518 27.7748C51.5662 27.7265 51.6223 27.6907 51.6816 27.6663H29.0004C28.7242 27.6663 28.5005 27.4425 28.5004 27.1664ZM52.0877 27.6802C52.137 27.7039 52.1842 27.7339 52.2251 27.7748C52.2645 27.8142 52.2941 27.86 52.3176 27.9073C52.2855 27.7964 52.1992 27.7107 52.0877 27.6802Z" fill="#111111"/>
</svg>
