<svg width="32" height="32" viewBox="0 0 32 32" fill="none" xmlns="http://www.w3.org/2000/svg">
<g clip-path="url(#clip0_354_22132)">
<g clip-path="url(#clip1_354_22132)">
<path d="M26.2221 10.75V26.875H5.236V10.75H9.88878V15.7778H10.9304V10.75H20.5416V15.7778H21.5832V10.75H26.2221ZM10.9304 9.34722C10.9304 6.69444 13.0832 4.54167 15.736 4.54167C18.3888 4.54167 20.5416 6.69444 20.5416 9.34722V9.70833H10.9304V9.34722ZM21.5832 9.34722C21.5832 6.125 18.9582 3.5 15.736 3.5C12.4999 3.5 9.88878 6.125 9.88878 9.34722V9.70833H4.19434V27.9167H27.2638V9.70833H21.5832V9.34722Z" fill="#2C3B32"/>
</g>
</g>
<defs>
<clipPath id="clip0_354_22132">
<rect width="25" height="25" fill="white" transform="translate(3.5 3.5)"/>
</clipPath>
<clipPath id="clip1_354_22132">
<rect width="25" height="25" fill="white" transform="translate(3.5 3.5)"/>
</clipPath>
</defs>
</svg>
