<svg width="44" height="44" viewBox="0 0 44 44" fill="none" xmlns="http://www.w3.org/2000/svg">
<path d="M32.4699 10.4697C32.7628 10.1768 33.2376 10.1768 33.5305 10.4697C33.8232 10.7626 33.8233 11.2374 33.5305 11.5302L23.0607 21.9999L33.5305 32.4697C33.8232 32.7626 33.8233 33.2374 33.5305 33.5302C33.2376 33.8231 32.7628 33.8229 32.4699 33.5302L22.0002 23.0605L11.5305 33.5302C11.2376 33.8231 10.7628 33.8229 10.4699 33.5302C10.177 33.2373 10.177 32.7626 10.4699 32.4697L20.9396 21.9999L10.4699 11.5302C10.177 11.2373 10.177 10.7626 10.4699 10.4697C10.7628 10.1768 11.2376 10.1768 11.5305 10.4697L22.0002 20.9394L32.4699 10.4697Z" fill="#0F0F0F"/>
</svg>
