<svg width="32" height="32" viewBox="0 0 32 32" fill="none" xmlns="http://www.w3.org/2000/svg">
<path d="M12.5823 9.33303C12.435 9.90605 12.1013 10.4138 11.6337 10.7764C11.1662 11.1389 10.5913 11.3357 9.99967 11.3357C9.40802 11.3357 8.83317 11.1389 8.36561 10.7764C7.89805 10.4138 7.56434 9.90605 7.41701 9.33303H5.99967C5.82286 9.33303 5.65329 9.2628 5.52827 9.13777C5.40325 9.01275 5.33301 8.84318 5.33301 8.66637C5.33301 8.48956 5.40325 8.31999 5.52827 8.19496C5.65329 8.06994 5.82286 7.9997 5.99967 7.9997H7.41701C7.56434 7.42668 7.89805 6.91893 8.36561 6.55638C8.83317 6.19383 9.40802 5.99707 9.99967 5.99707C10.5913 5.99707 11.1662 6.19383 11.6337 6.55638C12.1013 6.91893 12.435 7.42668 12.5823 7.9997H25.9997C26.1765 7.9997 26.3461 8.06994 26.4711 8.19496C26.5961 8.31999 26.6663 8.48956 26.6663 8.66637C26.6663 8.84318 26.5961 9.01275 26.4711 9.13777C26.3461 9.2628 26.1765 9.33303 25.9997 9.33303H12.5823ZM8.66634 8.66637C8.66634 9.01999 8.80682 9.35913 9.05687 9.60918C9.30691 9.85922 9.64605 9.9997 9.99967 9.9997C10.3533 9.9997 10.6924 9.85922 10.9425 9.60918C11.1925 9.35913 11.333 9.01999 11.333 8.66637C11.333 8.31275 11.1925 7.97361 10.9425 7.72356C10.6924 7.47351 10.3533 7.33303 9.99967 7.33303C9.64605 7.33303 9.30691 7.47351 9.05687 7.72356C8.80682 7.97361 8.66634 8.31275 8.66634 8.66637ZM24.5823 15.333H25.9997C26.1765 15.333 26.3461 15.4033 26.4711 15.5283C26.5961 15.6533 26.6663 15.8229 26.6663 15.9997C26.6663 16.1765 26.5961 16.3461 26.4711 16.4711C26.3461 16.5961 26.1765 16.6664 25.9997 16.6664H24.5823C24.435 17.2394 24.1013 17.7471 23.6337 18.1097C23.1662 18.4722 22.5913 18.669 21.9997 18.669C21.408 18.669 20.8332 18.4722 20.3656 18.1097C19.898 17.7471 19.5643 17.2394 19.417 16.6664H5.99967C5.82286 16.6664 5.65329 16.5961 5.52827 16.4711C5.40325 16.3461 5.33301 16.1765 5.33301 15.9997C5.33301 15.8229 5.40325 15.6533 5.52827 15.5283C5.65329 15.4033 5.82286 15.333 5.99967 15.333H19.417C19.5643 14.76 19.898 14.2523 20.3656 13.8897C20.8332 13.5272 21.408 13.3304 21.9997 13.3304C22.5913 13.3304 23.1662 13.5272 23.6337 13.8897C24.1013 14.2523 24.435 14.76 24.5823 15.333ZM23.333 15.9997C23.333 15.6461 23.1925 15.3069 22.9425 15.0569C22.6924 14.8068 22.3533 14.6664 21.9997 14.6664C21.6461 14.6664 21.3069 14.8068 21.0569 15.0569C20.8068 15.3069 20.6663 15.6461 20.6663 15.9997C20.6663 16.3533 20.8068 16.6925 21.0569 16.9425C21.3069 17.1926 21.6461 17.333 21.9997 17.333C22.3533 17.333 22.6924 17.1926 22.9425 16.9425C23.1925 16.6925 23.333 16.3533 23.333 15.9997ZM15.249 22.6664H25.9997C26.1765 22.6664 26.3461 22.7366 26.4711 22.8616C26.5961 22.9867 26.6663 23.1562 26.6663 23.333C26.6663 23.5098 26.5961 23.6794 26.4711 23.8044C26.3461 23.9295 26.1765 23.9997 25.9997 23.9997H15.249C15.1017 24.5727 14.768 25.0805 14.3004 25.443C13.8328 25.8056 13.258 26.0023 12.6663 26.0023C12.0747 26.0023 11.4998 25.8056 11.0323 25.443C10.5647 25.0805 10.231 24.5727 10.0837 23.9997H5.99967C5.82286 23.9997 5.65329 23.9295 5.52827 23.8044C5.40325 23.6794 5.33301 23.5098 5.33301 23.333C5.33301 23.1562 5.40325 22.9867 5.52827 22.8616C5.65329 22.7366 5.82286 22.6664 5.99967 22.6664H10.0837C10.231 22.0933 10.5647 21.5856 11.0323 21.2231C11.4998 20.8605 12.0747 20.6637 12.6663 20.6637C13.258 20.6637 13.8328 20.8605 14.3004 21.2231C14.768 21.5856 15.1017 22.0933 15.249 22.6664ZM13.9997 23.333C13.9997 22.9794 13.8592 22.6403 13.6091 22.3902C13.3591 22.1402 13.02 21.9997 12.6663 21.9997C12.3127 21.9997 11.9736 22.1402 11.7235 22.3902C11.4735 22.6403 11.333 22.9794 11.333 23.333C11.333 23.6867 11.4735 24.0258 11.7235 24.2758C11.9736 24.5259 12.3127 24.6664 12.6663 24.6664C13.02 24.6664 13.3591 24.5259 13.6091 24.2758C13.8592 24.0258 13.9997 23.6867 13.9997 23.333Z" fill="#333333"/>
</svg>
