<?xml version="1.0" encoding="UTF-8"?>
<svg xmlns="http://www.w3.org/2000/svg" version="1.1" viewBox="0 0 118 27">
  <defs>
    <style>
      .cls-1 {
        fill: none;
      }

      .cls-2 {
        fill: #fff;
      }
    </style>
  </defs>
  <!-- Generator: Adobe Illustrator 28.7.10, SVG Export Plug-In . SVG Version: 1.2.0 Build 236)  -->
  <g>
    <g id="Layer_1">
      <rect class="cls-1" y="0" width="118" height="26.3"/>
      <path class="cls-2" d="M49.2,24.6l-1.4-4.2h-.8l-1.4,4.2-1.4-4.2h-1l1.9,5.6h.8l1.5-4,1.3,4h.8l1.9-5.6h-1l-1.2,4.2ZM1.1,22.8h28.3v.8H1.1v-.8ZM36.2,1.7h1.9v12.4h-1.9V1.7h0ZM45.2,14.1h1.9v-5.2h6.5v-1.8h-6.5v-3.7h7.2v-1.7h-9v12.4ZM7.1,14.3c4,0,7.2-3.2,7.2-7.2S11,1.5,8.6,1.5C4,1.5,3.6,6,3.6,6h.1s.8-3.3,4.1-3.3,4.6,1.8,4.6,4.3-2.4,5.3-5.3,5.3S1.7,10.2,1.7,6.5,3.2,1.1,5.9.1h0C2.5.5,0,3.5,0,7.1c-.1,4,3.1,7.2,7.1,7.2h0ZM38.3,22.8c-1-.2-1.4-.4-1.4-.8s.3-.6.9-.6,1,.2,1.5.5l.5-.7c-.5-.4-1.2-.7-2-.7-1.1,0-1.9.6-1.9,1.7s.6,1.4,1.9,1.7c1,.2,1.2.4,1.2.8s-.4.7-.9.7-1.2-.3-1.8-.7l-.6.7c.6.6,1.5.9,2.3.9s2-.6,2-1.7-.6-1.6-1.8-1.8h0ZM30.4,14.1l-3.7-5c1.9-.5,3.1-1.9,3.1-3.6s-1.9-3.8-4.6-3.8h-5.4v12.4h1.9v-4.6h3l3.4,4.6h2.3c0,.1,0,0,0,0ZM21.6,7.7V3.3h3.4c1.8,0,2.8.7,2.8,2.1s-1.1,2.2-2.8,2.2h-3.4ZM56.2,23.6h2.8v-.9h-2.8v-1.4h3.1v-.9h-4.1v5.5h4.1v-.8h-3.1v-1.5ZM77.9,1.6l-5.6,12.5h2l1.5-3.2h6l1.4,3.2h2.1l-5.6-12.5h-1.7ZM76.4,9.2l2.3-5.3,2.3,5.3h-4.6,0ZM91.8,4.9l4,5.8.2.3.2-.3,3.9-5.8v9.2h1.9V1.7h-1.8l-4.2,6.2-4.2-6.2h-1.8v12.4h1.8V4.9ZM91.8,22.8h26.2v.8h-26.2v-.8ZM110.6,12.3v-3.6h6.5v-1.8h-6.5v-3.5h7.3v-1.7h-9.2v12.4h9.2v-1.8h-7.3ZM84,24.2l-3-3.8h-.9v5.5h1v-3.9l3,3.9h.8v-5.5h-.9v3.8ZM61.9,1.7h-1.8v12.4h8.5v-1.8h-6.8V1.7ZM73.1,23.6h2.8v-.9h-2.8v-1.4h3.1v-.9h-4.1v5.5h4.2v-.8h-3.2v-1.5ZM65.2,20.4h-2.1v5.5h2.1c1.8,0,2.9-1.2,2.9-2.8.1-1.5-1.1-2.7-2.9-2.7h0ZM65.2,25.1h-1.1v-3.7h1.1c1.1,0,1.9.8,1.9,1.9.1,1-.7,1.9-1.9,1.9h0Z"/>
    </g>
  </g>
</svg>