<svg width="346" height="55" viewBox="0 0 346 55" fill="none" xmlns="http://www.w3.org/2000/svg">
<path fill-rule="evenodd" clip-rule="evenodd" d="M26.8635 0.0146056C28.3782 0.0127436 29.9276 -0.0342013 31.4377 0.0507384C36.6519 0.344107 41.6348 1.96604 45.9426 4.93257C51.8244 8.95887 55.8589 15.1488 57.1584 22.1396C58.4293 29.2355 56.8649 36.5455 52.799 42.5078C48.8282 48.1851 42.9202 52.2298 36.1769 53.8886C34.1234 54.4036 32.9361 54.4218 31.0422 54.7636C23.1508 55.0087 16.1902 53.4775 9.90936 48.4003C4.41565 43.995 0.906235 37.5932 0.155454 30.6074C-1.4659 14.8167 9.77656 1.91579 25.4181 0.164996C25.8993 0.111154 26.3818 0.0631786 26.8635 0.0146056ZM248.62 1.29195C252.945 1.17943 257.865 1.28151 262.232 1.28316C262.931 3.12985 263.722 4.97282 264.446 6.81441L276.198 36.0195C277.029 33.8415 277.949 31.5111 278.884 29.3808C282.936 20.1409 286.351 10.5042 290.412 1.28121L298.555 1.27925C300.056 1.27858 301.822 1.2384 303.298 1.30953C300.285 4.47327 301.289 9.24027 301.615 13.2168L302.611 25.2441L303.764 39.1855C303.939 41.3314 304.077 43.4947 304.297 45.6357C304.625 48.8207 305.467 51.6783 308.227 53.5732C303.45 53.4979 298.602 53.6399 293.814 53.5537C297.353 51.68 296.486 48.1588 296.195 44.8769L295.621 38.0918C294.83 29.204 294.096 20.3113 293.418 11.414C293.301 10.9144 293.287 10.0417 293.261 9.50289C292.712 10.6082 291.975 12.5793 291.487 13.7724L288.206 21.7841L278.819 44.6464L276.322 50.7773C275.867 51.8924 275.361 53.2407 274.836 54.2968C274.529 53.7267 274.053 52.4272 273.798 51.7861L271.849 46.9003L259.839 16.8115C259.51 15.9948 257.207 10.0925 256.946 9.97164C256.845 10.4056 256.744 12.3088 256.707 12.8476L256.266 19.6211L254.887 40.1123L254.521 45.3701C254.279 48.7995 253.541 51.3651 256.785 53.5566C253.139 53.7051 248.522 53.5697 244.799 53.5693C248.681 49.4971 247.828 44.6964 248.367 39.4834C248.4 39.1716 248.412 38.8514 248.435 38.538L249.691 19.7041L250.249 11.3408C250.521 7.57721 251.155 4.50266 248.62 1.29195ZM72.5334 1.28121C78.506 1.27973 83.2585 0.992917 88.7795 3.89449C95.5493 7.45258 97.8008 15.6785 94.2414 22.3046C92.2276 26.0537 88.2795 28.1466 84.3283 29.2519L94.2258 41.4003C96.6178 44.3286 99.0844 47.486 101.647 50.2461C102.715 51.3972 104.326 52.6167 105.598 53.5673H92.9055C92.3221 52.8955 91.5856 51.8766 91.0275 51.1513C89.3929 49.1719 87.748 46.9051 86.1525 44.8711C82.3475 40.0201 78.6292 35.0545 74.801 30.2255C74.3108 30.1632 73.9076 30.0778 73.4279 29.9746C73.3805 33.5513 73.3932 37.166 73.4211 40.7441C73.4617 45.9573 72.6553 49.2314 76.0197 53.5664C74.5083 53.5706 64.2034 53.727 63.5168 53.4873C63.4502 52.6311 64.6927 51.1484 65.0041 50.1767C65.7946 47.7096 65.5651 45.1208 65.5598 42.5449L65.5558 32.7587L65.5598 15.624C65.56 12.7269 65.5932 9.74121 65.5197 6.85738C65.365 5.50149 64.8579 4.21563 64.1769 3.04C63.85 2.47556 63.42 1.93968 63.4435 1.28609L72.5334 1.28121ZM313.304 1.31539C316.119 1.18684 319.574 1.27949 322.425 1.28023L339.31 1.28707C340.114 4.10674 340.972 7.64972 341.884 10.3447C341.662 10.194 341.437 10.0475 341.209 9.90621C336.633 7.07233 332.022 5.76827 326.63 5.85836C325.611 5.87539 324.199 5.88106 323.232 6.1064C323.229 11.6098 323.181 17.1937 323.244 22.6904C327.842 22.6996 333.006 22.9042 337.361 21.3916L338.888 30.2871C334.974 27.923 327.797 27.418 323.233 27.3984V48.165C323.297 48.1758 323.362 48.1864 323.426 48.1962C330.053 49.1954 340.536 48.0241 346 44.0127V44.5273C345.712 44.8646 344.78 46.7831 344.523 47.2959L341.404 53.5673L323.347 53.5712C320.087 53.5721 316.55 53.6397 313.308 53.5449C313.129 53.1937 315.235 49.7276 315.294 48.1728C315.409 45.1512 315.395 42.1994 315.394 39.1806L315.39 22.9746V12.3515C315.389 8.71333 315.816 5.52503 313.64 2.41402C313.399 2.06858 313.193 1.7326 313.304 1.31539ZM156.189 1.28218C156.983 4.16946 157.85 7.51952 158.778 10.3369C158.423 10.1132 158.065 9.89367 157.704 9.67867C153.174 6.97057 148.735 5.76016 143.442 5.85054C142.465 5.86722 141.024 5.87674 140.11 6.10445L140.112 23.2382C145.144 23.2463 147.931 23.4789 152.864 21.9726C153.387 24.4975 153.972 28.2873 154.345 30.8545C153.02 29.9829 150.472 29.2429 148.926 28.956C147.565 28.4914 141.635 27.9052 140.119 27.9345L140.11 40.7255C140.11 45.6455 139.404 49.5284 142.78 53.5625L134.026 53.5693C133.432 53.5696 130.579 53.6124 130.177 53.4961C130.053 52.7851 131.556 50.9966 131.849 49.8457C132.364 47.8128 132.337 46.6751 132.335 44.6308L132.332 20.207C132.333 16.3797 132.481 11.2791 132.296 7.5439C132.246 6.39684 131.982 5.26877 131.521 4.21675C131.136 3.31752 130.068 1.89887 130.072 1.28121L156.189 1.28218ZM164.266 1.29293C168.46 1.19583 172.981 1.28381 177.201 1.28609C174.351 4.35461 174.568 7.47494 174.572 11.3154L174.584 19.2851L174.58 48.6718C175.983 48.6894 177.298 48.8428 178.787 48.833C184.002 48.7986 190.758 47.7677 195.006 44.5898C194.379 45.7126 193.773 46.848 193.193 47.9951C192.899 48.3897 192.345 49.4823 192.093 49.955L190.166 53.5712H164.173C165.555 51.4892 166.639 49.8919 166.723 47.2607C166.804 44.7202 166.749 42.1733 166.749 39.6308V24.5312L166.753 13.3466C166.76 9.68633 167.26 5.68751 165.044 2.57711C164.823 2.26613 164.371 1.63361 164.266 1.29293ZM211.449 1.29586C214.845 1.19452 218.656 1.28304 222.083 1.28707C222.274 2.02572 222.734 3.21056 223.007 3.97457L224.837 9.04879L230.133 23.7763L235.397 38.3789C237.127 43.1845 239.188 50.4716 243.509 53.5654L227.595 53.5693C231.257 49.5768 229.61 47.0592 228.07 42.5849L225.272 34.4052C224.638 34.3758 223.791 34.4002 223.14 34.3994C222.397 34.5466 218.928 34.4811 217.986 34.4843L208.401 34.5586C208.385 34.5972 208.368 34.6365 208.353 34.6757C207.506 36.8948 206.802 39.4246 205.976 41.7099C205.269 44.0204 204.223 46.2921 203.721 48.6572C203.129 51.4476 203.949 52.6215 206.494 53.5664L192.737 53.5693C196.308 50.9623 197.809 47.6576 199.252 43.666L201.174 38.3281L207.679 20.0361L210.743 11.4218C211.408 9.56434 212.192 7.59826 212.61 5.68062C212.976 3.99856 212.365 2.6622 211.449 1.29586ZM107.39 1.28316C108.59 1.26685 119.579 1.20583 119.941 1.35836C119.988 1.51862 120.007 1.76744 119.919 1.89644C119.163 3.05475 118.245 4.6627 118.077 6.06832C117.71 9.16797 117.871 12.6815 117.871 15.8232L117.872 32.4228L117.873 42.9062C117.872 45.9044 117.562 48.7429 119.015 51.4873C119.346 52.1131 120.154 52.8158 119.887 53.5322L119.652 53.5664L107.42 53.5625C108.861 51.7979 109.922 49.5684 109.985 47.2871C110.055 44.6732 110.018 41.9265 110.015 39.3086L110.01 24.0312L110.015 13.2207C110.022 8.67742 110.601 4.95651 107.39 1.28316ZM28.3791 5.42379C28.0754 5.42494 27.4496 5.42877 27.1652 5.47945C2.9174 7.99438 3.34053 39.4661 23.1545 47.9277C25.5451 48.9485 28.0215 49.0801 30.5978 49.0429C35.0389 49.0165 40.4034 46.552 43.5119 43.414C55.5964 31.2143 46.1696 5.35614 28.3791 5.42379ZM216.533 10.5918C215.79 12.8847 214.911 15.2988 214.124 17.5947L209.85 30C212.37 29.9858 215.072 29.9182 217.572 29.9589C219.679 29.9767 221.77 29.9465 223.878 29.9795C222.95 27.6433 216.83 10.7946 216.533 10.5918ZM75.8723 5.77144C75.3345 5.81794 73.8493 5.81522 73.4982 6.19234C73.4402 6.25487 73.3102 23.8124 73.425 25.2011C73.4319 25.2841 73.454 25.3683 73.4767 25.4482C74.2123 25.8756 77.6009 25.7026 78.5598 25.6201C80.2883 25.4713 81.9935 24.8112 83.5051 23.9921C84.3958 23.3385 85.0954 22.7799 85.756 21.8877C88.1062 18.7127 88.1134 13.6335 86.1906 10.2597C84.0443 6.49381 79.8534 5.6984 75.8723 5.77144Z" fill="#1E1E1E"/>
</svg>
