<svg width="200" height="32" viewBox="0 0 200 32" fill="none" xmlns="http://www.w3.org/2000/svg">
<path d="M15.5283 0.00878906C16.4037 0.0077051 17.2991 -0.0197938 18.1719 0.0292969C21.1858 0.198884 24.0657 1.13683 26.5557 2.85156C29.9557 5.17892 32.2879 8.75681 33.0391 12.7979C33.7737 16.8995 32.8697 21.1249 30.5195 24.5713C28.2243 27.853 24.809 30.1915 20.9111 31.1504C19.7244 31.448 19.0379 31.4578 17.9434 31.6553C13.3819 31.7969 9.35805 30.9123 5.72754 27.9775C2.552 25.4311 0.523832 21.7304 0.0898438 17.6924C-0.847356 8.56478 5.65098 1.10769 14.6924 0.0957031C14.9705 0.0645734 15.2498 0.0368726 15.5283 0.00878906ZM143.711 0.74707C146.211 0.682039 149.055 0.740262 151.579 0.741211C151.983 1.80856 152.44 2.87407 152.858 3.93848L159.652 20.8203C160.132 19.5613 160.664 18.2138 161.204 16.9824C163.546 11.6415 165.521 6.0714 167.868 0.740234L172.574 0.739258C173.442 0.738867 174.463 0.714741 175.316 0.755859C173.575 2.5845 174.155 5.34015 174.344 7.63867L174.919 14.5918L175.585 22.6504C175.686 23.8907 175.767 25.1414 175.894 26.3789C176.083 28.2198 176.57 29.8715 178.165 30.9668C175.404 30.9233 172.602 31.0049 169.834 30.9551C171.88 29.872 171.379 27.8365 171.211 25.9395L170.879 22.0186C170.422 16.881 169.997 11.7397 169.605 6.59668C169.538 6.30781 169.53 5.80348 169.515 5.49219C169.197 6.13104 168.771 7.27026 168.488 7.95996L166.593 12.5918L161.167 25.8066L159.724 29.3506C159.461 29.9951 159.168 30.7743 158.864 31.3848C158.687 31.0551 158.412 30.3041 158.265 29.9336L157.138 27.1094L150.195 9.7168C150.005 9.24325 148.674 5.83349 148.523 5.76367C148.465 6.01485 148.407 7.11419 148.386 7.42578L148.13 11.3408L147.333 23.1855L147.122 26.2256C146.982 28.2077 146.554 29.6904 148.43 30.957C146.322 31.0428 143.654 30.9651 141.502 30.9648C143.746 28.6109 143.252 25.8356 143.564 22.8223C143.583 22.642 143.591 22.4565 143.604 22.2754L144.329 11.3887L144.652 6.55469C144.809 4.37943 145.176 2.60278 143.711 0.74707ZM41.9268 0.740234C45.379 0.739376 48.1261 0.573797 51.3174 2.25098C55.2304 4.30775 56.532 9.06255 54.4746 12.8926C53.3106 15.0597 51.0281 16.2693 48.7441 16.9082L54.4648 23.9307C55.8476 25.6234 57.2737 27.4485 58.7549 29.0439C59.3725 29.7093 60.3031 30.4144 61.0381 30.9639H53.7021C53.365 30.5755 52.9398 29.9856 52.6172 29.5664C51.6723 28.4222 50.7211 27.1123 49.7988 25.9365C47.5995 23.1326 45.4501 20.2629 43.2373 17.4717C42.9539 17.4357 42.7207 17.3849 42.4434 17.3252C42.416 19.3927 42.4234 21.4825 42.4395 23.5508C42.463 26.5643 41.9966 28.4571 43.9414 30.9629C43.0675 30.9654 37.1144 31.0554 36.7148 30.917C36.6764 30.4221 37.3942 29.5646 37.5742 29.0029C38.031 27.577 37.8986 26.0807 37.8955 24.5918L37.8936 18.9355L37.8955 9.03125C37.8957 7.35678 37.9145 5.63068 37.8721 3.96387C37.7826 3.18007 37.4894 2.43643 37.0957 1.75684C36.9067 1.43063 36.6584 1.12087 36.6719 0.743164L41.9268 0.740234ZM186.372 0.740234L196.132 0.744141C196.597 2.37399 197.093 4.42178 197.62 5.97949C197.492 5.89239 197.362 5.80727 197.23 5.72559C194.585 4.08742 191.92 3.33367 188.803 3.38574C188.214 3.39558 187.398 3.39913 186.839 3.5293C186.837 6.71039 186.809 9.93798 186.846 13.1152C189.504 13.1205 192.489 13.2386 195.006 12.3643L195.889 17.5068C193.626 16.1403 189.477 15.8482 186.839 15.8369V27.8408C186.876 27.8471 186.914 27.8527 186.951 27.8584C190.782 28.4359 196.841 27.759 199.999 25.4404V25.7383C199.832 25.9343 199.294 27.0416 199.146 27.3379L197.343 30.9629L186.905 30.9658C185.021 30.9663 182.976 31.005 181.102 30.9502C181 30.7455 182.215 28.7442 182.25 27.8457C182.316 26.099 182.308 24.3925 182.308 22.6475L182.306 13.2803V7.13965C182.305 5.03673 182.552 3.19371 181.294 1.39551C181.155 1.19582 181.036 1.00094 181.1 0.759766C182.727 0.685458 184.724 0.739806 186.372 0.740234ZM90.2822 0.741211C90.7411 2.41008 91.2419 4.34618 91.7783 5.97461C91.5733 5.84533 91.367 5.71805 91.1582 5.59375C88.5397 4.02845 85.9737 3.32965 82.9141 3.38184C82.3497 3.39148 81.5157 3.39665 80.9873 3.52832L80.9893 13.4326C83.8983 13.4373 85.5088 13.5719 88.3604 12.7012C88.6622 14.1606 89.0001 16.3512 89.2158 17.835C88.4497 17.3312 86.9777 16.9031 86.084 16.7373C85.2974 16.4688 81.8691 16.1295 80.9932 16.1465L80.9873 23.54C80.9878 26.384 80.5798 28.629 82.5312 30.9609L77.4707 30.9648C77.1271 30.965 75.4774 30.9892 75.2461 30.9219C75.1749 30.5108 76.0437 29.4777 76.2129 28.8125C76.5104 27.6374 76.4952 26.9796 76.4941 25.7979L76.4922 11.6807C76.4927 9.4683 76.5778 6.51949 76.4707 4.36035C76.4416 3.69745 76.2902 3.04549 76.0234 2.4375C75.8012 1.91767 75.1829 1.09723 75.1855 0.740234L90.2822 0.741211ZM94.9512 0.74707C97.3754 0.690953 99.9884 0.74184 102.428 0.743164C100.781 2.51677 100.906 4.32028 100.909 6.54004L100.915 11.1475L100.913 28.1338C101.724 28.144 102.484 28.2332 103.345 28.2275C106.359 28.2077 110.264 27.6113 112.72 25.7744C112.357 26.4233 112.008 27.0793 111.672 27.7422C111.502 27.9703 111.182 28.6027 111.036 28.876L109.923 30.9658H94.8975C95.6964 29.7624 96.3226 28.8392 96.3711 27.3184C96.4179 25.8497 96.3867 24.377 96.3867 22.9072V14.1797L96.3887 7.71484C96.3924 5.59897 96.6815 3.28725 95.4004 1.48926C95.2723 1.30945 95.012 0.943946 94.9512 0.74707ZM122.225 0.749023C124.187 0.690448 126.39 0.740837 128.371 0.743164C128.481 1.17007 128.748 1.85522 128.905 2.29688L129.963 5.23047L133.024 13.7432L136.066 22.1836C137.067 24.9615 138.258 29.1746 140.756 30.9629L131.558 30.9648C133.674 28.657 132.722 27.2015 131.832 24.6152L130.215 19.8867C129.848 19.8697 129.358 19.8843 128.981 19.8838C128.551 19.9688 126.548 19.9308 126.003 19.9326L120.462 19.9756C120.453 19.998 120.444 20.0212 120.435 20.0439C119.945 21.3266 119.538 22.7884 119.061 24.1094C118.652 25.4449 118.047 26.7579 117.757 28.125C117.415 29.738 117.889 30.4167 119.36 30.9629L111.408 30.9648C113.472 29.458 114.34 27.5474 115.174 25.2402L116.285 22.1543L120.045 11.5811L121.816 6.60156C122.201 5.52795 122.653 4.39157 122.895 3.2832C123.106 2.311 122.754 1.53874 122.225 0.749023ZM62.0752 0.741211C62.7712 0.731775 69.1235 0.696944 69.3301 0.785156C69.3575 0.877701 69.3677 1.0211 69.3174 1.0957C68.8805 1.76528 68.3498 2.69521 68.2529 3.50781C68.0404 5.29953 68.1338 7.33046 68.1338 9.14648V18.7412L68.1348 24.8018C68.1342 26.5347 67.9541 28.1754 68.7939 29.7617C68.9855 30.1234 69.4532 30.5293 69.2988 30.9434L69.1621 30.9629L62.0918 30.9609C62.9247 29.9409 63.5391 28.6518 63.5752 27.333C63.6161 25.8222 63.5934 24.2348 63.5918 22.7217L63.5898 13.8906L63.5918 7.6416C63.5961 5.0156 63.9313 2.86445 62.0752 0.741211ZM16.4043 3.13574C16.2288 3.13641 15.8666 3.13865 15.7021 3.16797C1.68613 4.6217 1.93069 22.813 13.3838 27.7041C14.7656 28.2941 16.1973 28.3701 17.6865 28.3486C20.2536 28.3333 23.3546 26.9095 25.1514 25.0957C32.1368 18.044 26.6878 3.09687 16.4043 3.13574ZM125.163 6.12207C124.733 7.44747 124.225 8.8428 123.771 10.1699L121.3 17.3408C122.757 17.3326 124.319 17.2939 125.764 17.3174C126.981 17.3276 128.191 17.3101 129.409 17.3291C128.873 15.9791 125.335 6.23935 125.163 6.12207ZM43.8564 3.33594C43.5456 3.36283 42.6859 3.36084 42.4834 3.5791C42.4498 3.6333 42.3751 13.762 42.4414 14.5664C42.4454 14.6144 42.4586 14.6638 42.4717 14.71C42.8972 14.9568 44.8544 14.8563 45.4092 14.8086C46.4084 14.7226 47.3948 14.3416 48.2686 13.8682C48.7835 13.4903 49.1875 13.1671 49.5693 12.6514C50.9278 10.8161 50.9327 7.87989 49.8213 5.92969C48.5806 3.75288 46.1577 3.29372 43.8564 3.33594Z" fill="#1E1E1E"/>
</svg>
