<svg width="457" height="102" viewBox="0 0 457 102" fill="none" xmlns="http://www.w3.org/2000/svg">
<path d="M190.624 95.2219L185.38 79.0862H182.158L176.914 95.2219L171.677 79.0664H167.633L174.886 100.848H178.108L183.75 85.5155L188.977 100.848H192.199L199.432 79.0664H195.421L190.624 95.2219ZM4.38541 88.3682H114.033V91.5927H4.38541V88.3682ZM140.229 6.47206H147.486V54.4779H140.22V6.47206H140.229ZM174.896 54.4779H182.152V34.3082H207.145V27.4512H182.126V12.931H209.94V6.46877H174.892L174.896 54.4779ZM27.3669 55.2774C42.6879 55.2774 55.1815 42.7742 55.1815 27.4413C55.1815 12.523 42.6879 5.65935 33.4164 5.65935C15.2745 5.65935 14.0646 23.4139 14.0646 23.4139H14.492C14.492 23.4139 17.714 10.506 30.2076 10.506C40.301 10.506 47.9615 17.363 47.9615 27.0465C47.9615 38.3323 38.69 47.611 27.413 47.611C16.5304 47.611 6.46328 39.5497 6.46328 25.0064C6.46328 13.6877 12.5128 4.40903 22.9909 0.394839V0C9.68859 2.0071 0.0093913 13.7206 0.0093913 27.4084C-0.391717 42.7413 12.1084 55.2445 27.4228 55.2445L27.3669 55.2774ZM148.291 88.3649C144.264 87.5588 143.054 86.7526 143.054 85.1404C143.054 83.5281 144.27 82.7154 146.703 82.7154C148.742 82.7154 150.747 83.5051 152.358 84.7225L154.387 81.9257C152.371 80.3135 149.554 79.0961 146.726 79.0961C142.288 79.0961 139.47 81.5309 139.47 85.5451C139.47 89.5593 141.87 90.8096 146.703 91.9941C150.714 92.8167 151.536 93.6064 151.536 95.2186C151.536 96.8309 149.925 98.0483 147.92 98.0483C145.092 98.0483 143.087 96.8309 141.048 95.2186L138.615 98.0483C141.032 100.483 144.257 101.701 147.479 101.701C151.917 101.701 155.14 99.2986 155.14 95.2515C155.14 90.8096 152.713 89.1973 148.281 88.4077L148.291 88.3649ZM117.659 54.4746L103.147 35.1143C110.403 33.1072 115.239 27.8756 115.239 20.9988C115.239 12.1479 108.006 6.09368 97.5181 6.09368H76.5421V54.0995H83.7752V36.3317H95.4468L108.762 54.0995L117.639 54.5141L117.659 54.4746ZM83.7949 29.863V12.931H97.1005C103.952 12.931 107.983 15.7606 107.983 21.0021C107.983 26.2436 103.545 29.4747 97.1005 29.4747H83.7949V29.863ZM217.627 91.5894H228.509V87.9635H217.627V82.7187H229.719V79.0895H214.004V100.47H229.719V97.2455H217.65L217.627 91.5894ZM301.873 6.06735L280.108 54.4779H287.768L293.407 41.9746H316.783L322.027 54.4779H330.088L308.327 6.06735H301.873ZM295.83 35.5157L304.674 14.9446L313.518 35.5421H295.764L295.83 35.5157ZM355.47 18.9786L370.791 41.5699L371.58 42.7808L372.369 41.5963L387.282 19.0246V54.5272H394.538V6.48852H387.687L371.564 30.6921L355.434 6.48852H348.595V54.4943H355.45L355.47 18.9786ZM355.47 88.3649H457.029V91.5894H355.47V88.3649ZM428.426 47.6208V33.5054H453.413V26.645H428.426V12.9244H456.635V6.47535H421.192V54.4812H456.667V47.611L428.426 47.6208ZM325.259 94.0045L313.564 79.0862H309.938V100.467H313.968V85.5418L325.64 100.467H328.862V79.0862H325.245L325.259 94.0045ZM239.796 6.47535H232.945V54.4812H266V47.6241H239.796V6.47535ZM282.932 91.596H293.814V87.9668H282.932V82.7187H295.021V79.0895H279.296V100.47H295.422V97.2455H282.896L282.932 91.596ZM252.694 79.0928H244.61V100.47H252.674C259.523 100.47 263.958 95.6332 263.958 89.579C264.359 83.9295 159.52 79.0895 252.668 79.0895L252.694 79.0928ZM252.694 97.2422H248.256V82.7187H252.694C257.133 82.7187 259.927 85.9432 259.927 89.9772C260.322 94.0111 257.1 97.2389 252.661 97.2389L252.694 97.2422Z" fill="white"/>
</svg>
