<svg width="32" height="32" viewBox="0 0 32 32" fill="none" xmlns="http://www.w3.org/2000/svg">
<path d="M4.66667 8C4.48986 8 4.32029 8.07024 4.19526 8.19526C4.07024 8.32029 4 8.48986 4 8.66667C4 8.84348 4.07024 9.01305 4.19526 9.13807C4.32029 9.2631 4.48986 9.33333 4.66667 9.33333H18C18.1768 9.33333 18.3464 9.2631 18.4714 9.13807C18.5964 9.01305 18.6667 8.84348 18.6667 8.66667C18.6667 8.48986 18.5964 8.32029 18.4714 8.19526C18.3464 8.07024 18.1768 8 18 8H4.66667ZM4.66667 14.6667C4.48986 14.6667 4.32029 14.7369 4.19526 14.8619C4.07024 14.987 4 15.1565 4 15.3333C4 15.5101 4.07024 15.6797 4.19526 15.8047C4.32029 15.9298 4.48986 16 4.66667 16H14C14.1768 16 14.3464 15.9298 14.4714 15.8047C14.5964 15.6797 14.6667 15.5101 14.6667 15.3333C14.6667 15.1565 14.5964 14.987 14.4714 14.8619C14.3464 14.7369 14.1768 14.6667 14 14.6667H4.66667ZM4.66667 21.3333C4.48986 21.3333 4.32029 21.4036 4.19526 21.5286C4.07024 21.6536 4 21.8232 4 22C4 22.1768 4.07024 22.3464 4.19526 22.4714C4.32029 22.5964 4.48986 22.6667 4.66667 22.6667H10C10.1768 22.6667 10.3464 22.5964 10.4714 22.4714C10.5964 22.3464 10.6667 22.1768 10.6667 22C10.6667 21.8232 10.5964 21.6536 10.4714 21.5286C10.3464 21.4036 10.1768 21.3333 10 21.3333H4.66667ZM25.3333 8.66667C25.3333 8.48986 25.2631 8.32029 25.1381 8.19526C25.013 8.07024 24.8435 8 24.6667 8C24.4899 8 24.3203 8.07024 24.1953 8.19526C24.0702 8.32029 24 8.48986 24 8.66667V21.724L21.1387 18.8613C21.0135 18.7362 20.8437 18.6658 20.6667 18.6658C20.4896 18.6658 20.3198 18.7362 20.1947 18.8613C20.0695 18.9865 19.9992 19.1563 19.9992 19.3333C19.9992 19.5104 20.0695 19.6802 20.1947 19.8053L24.1947 23.8053C24.2566 23.8674 24.3302 23.9167 24.4112 23.9503C24.4921 23.9839 24.579 24.0012 24.6667 24.0012C24.7544 24.0012 24.8412 23.9839 24.9222 23.9503C25.0032 23.9167 25.0767 23.8674 25.1387 23.8053L29.1387 19.8053C29.2007 19.7433 29.2498 19.6698 29.2834 19.5888C29.3169 19.5078 29.3342 19.421 29.3342 19.3333C29.3342 19.2457 29.3169 19.1589 29.2834 19.0779C29.2498 18.9969 29.2007 18.9233 29.1387 18.8613C29.0767 18.7993 29.0031 18.7502 28.9221 18.7166C28.8411 18.6831 28.7543 18.6658 28.6667 18.6658C28.579 18.6658 28.4922 18.6831 28.4112 18.7166C28.3302 18.7502 28.2567 18.7993 28.1947 18.8613L25.3333 21.724V8.66667Z" fill="#333333"/>
</svg>
