<svg width="32" height="32" viewBox="0 0 32 32" fill="none" xmlns="http://www.w3.org/2000/svg">
<path d="M14.667 3.5C20.834 3.50018 25.833 8.49992 25.833 14.667C25.8329 17.5706 24.7237 20.2143 22.9072 22.2002L28.3535 27.6465C28.5485 27.8418 28.5487 28.1584 28.3535 28.3535C28.1584 28.5487 27.8418 28.5485 27.6465 28.3535L22.2002 22.9072C20.2143 24.7237 17.5706 25.8329 14.667 25.833C8.49992 25.833 3.50018 20.834 3.5 14.667C3.5 8.49981 8.49981 3.5 14.667 3.5ZM14.667 4.5C9.0521 4.5 4.5 9.0521 4.5 14.667C4.50018 20.2817 9.05221 24.833 14.667 24.833C17.4378 24.8329 19.9476 23.7224 21.7812 21.9248C21.7996 21.8969 21.8221 21.8712 21.8467 21.8467C21.8712 21.8221 21.8969 21.7996 21.9248 21.7812C23.7224 19.9476 24.8329 17.4378 24.833 14.667C24.833 9.05221 20.2817 4.50018 14.667 4.5Z" fill="#111111"/>
</svg>
