<svg width="32" height="32" viewBox="0 0 32 32" fill="none" xmlns="http://www.w3.org/2000/svg">
<path d="M20 19.5C21.547 19.5001 23.0311 20.1151 24.125 21.209C25.2187 22.3028 25.8339 23.7862 25.834 25.333V28C25.834 28.2759 25.6098 28.4996 25.334 28.5C25.0578 28.5 24.834 28.2761 24.834 28V25.333C24.8339 24.0514 24.3241 22.8223 23.418 21.916C22.5116 21.0097 21.2818 20.5001 20 20.5H12C10.7183 20.5001 9.48934 21.0098 8.58301 21.916C7.67666 22.8224 7.16708 24.0512 7.16699 25.333V28C7.16699 28.276 6.94298 28.4998 6.66699 28.5C6.39085 28.5 6.16699 28.2761 6.16699 28V25.333C6.16708 23.786 6.78209 22.3029 7.87598 21.209C8.96985 20.1152 10.4531 19.5001 12 19.5H20ZM16 3.5C19.2214 3.50018 21.8338 6.1116 21.834 9.33301C21.834 12.5546 19.2215 15.1668 16 15.167C12.7785 15.1668 10.167 12.5546 10.167 9.33301C10.1672 6.1116 12.7786 3.50018 16 3.5ZM16 4.5C13.3309 4.50018 11.1672 6.66389 11.167 9.33301C11.167 12.0023 13.3308 14.1668 16 14.167C18.6692 14.1668 20.834 12.0023 20.834 9.33301C20.8338 6.66389 18.6691 4.50018 16 4.5Z" fill="#111111"/>
</svg>
